<svg xmlns="http://www.w3.org/2000/svg" viewBox="0 0 512 512" width="512" height="512">
  <defs>
    <linearGradient id="blueGrad" x1="0%" y1="0%" x2="100%" y2="100%">
      <stop offset="0%" stop-color="#0f2d42"/>
      <stop offset="50%" stop-color="#1B4965"/>
      <stop offset="100%" stop-color="#2D6A8F"/>
    </linearGradient>
  </defs>
  <!-- Background -->
  <rect width="512" height="512" rx="128" fill="url(#blueGrad)"/>
  <!-- Tooth Icon -->
  <path d="M256,120 C220,120 180,140 180,190 C180,240 210,290 225,350 C230,370 235,400 240,410 C242,415 248,420 256,420 C264,420 270,415 272,410 C277,400 282,370 287,350 C302,290 332,240 332,190 C332,140 292,120 256,120 Z" fill="#ffffff" filter="drop-shadow(0px 8px 16px rgba(0,0,0,0.3))"/>
  <!-- Tooth details/highlights -->
  <path d="M225,150 C210,165 205,185 205,205" stroke="#e2e8f0" stroke-width="8" stroke-linecap="round" fill="none"/>
</svg>
